<svg width="47" height="47" viewBox="0 0 47 47" fill="none" xmlns="http://www.w3.org/2000/svg">
<rect width="47" height="47" rx="7.79587" fill="#6F6C99" fill-opacity="0.5"/>
<path d="M30.8657 34.801C30.8657 36.2175 29.8816 37.4 28.5854 37.6833C28.5374 37.6956 28.4894 37.7079 28.4414 37.7079C28.0814 37.7695 27.7213 37.8187 27.3373 37.8557C27.2653 37.8557 27.2052 37.868 27.1332 37.868C27.0612 37.868 26.9892 37.8803 26.9172 37.8803C26.8332 37.8803 26.7492 37.8803 26.6652 37.8803C26.4972 37.8803 26.3291 37.8803 26.1611 37.868C26.0771 37.868 25.9931 37.8557 25.9091 37.8557H25.8971C25.8251 37.8557 25.7411 37.8434 25.669 37.8311C25.645 37.8311 25.633 37.8311 25.609 37.8311C25.549 37.8187 25.489 37.8187 25.417 37.8064C25.357 37.7941 25.297 37.7941 25.249 37.7818C25.189 37.7695 25.141 37.7695 25.081 37.7572C25.033 37.7448 24.985 37.7448 24.9249 37.7325C24.9129 37.7325 24.9129 37.7325 24.9009 37.7325C24.8409 37.7202 24.7809 37.7079 24.7209 37.6956C24.6729 37.6833 24.6249 37.6709 24.5769 37.6586C24.5649 37.6586 24.5649 37.6586 24.5529 37.6586C24.4929 37.6463 24.4329 37.634 24.3729 37.6217L24.2769 37.597C24.2289 37.5847 24.1928 37.5724 24.1448 37.5601C24.0728 37.5354 24.0008 37.5231 23.9408 37.4985C23.8928 37.4862 23.8328 37.4615 23.7848 37.4492C22.8487 37.1536 21.9606 36.7225 21.1684 36.1682C21.1084 36.1189 21.0364 36.082 20.9764 36.0327C20.9164 35.9834 20.8564 35.9465 20.7964 35.8972C20.7844 35.8972 20.7844 35.8849 20.7724 35.8849C20.7124 35.8356 20.6644 35.7987 20.6044 35.7494C20.5924 35.7371 20.5804 35.7371 20.5804 35.7248C20.5324 35.6878 20.4964 35.6509 20.4484 35.6139C20.4244 35.6016 20.4003 35.577 20.3763 35.5523C20.3283 35.5154 20.2803 35.4661 20.2323 35.4292C20.2323 35.4292 20.2203 35.4292 20.2203 35.4168C20.1603 35.3676 20.1003 35.3183 20.0523 35.2567C19.9923 35.2074 19.9323 35.1459 19.8843 35.0966C19.8243 35.0473 19.7763 34.9857 19.7163 34.9241C19.6562 34.8626 19.6082 34.8133 19.5482 34.7517C19.4402 34.6285 19.3322 34.5177 19.2362 34.3945C19.1882 34.3452 19.1402 34.2836 19.1042 34.2344C19.0922 34.2221 19.0922 34.2221 19.0802 34.2097C19.0322 34.1481 18.9842 34.0866 18.9362 34.025C18.9001 33.9757 18.8641 33.9264 18.8281 33.8772C18.7921 33.8279 18.7441 33.7663 18.7081 33.717C18.6721 33.6678 18.6361 33.6185 18.6001 33.5569C18.5881 33.5446 18.5761 33.52 18.5641 33.5076C18.5281 33.4584 18.5041 33.4214 18.4681 33.3722C18.4561 33.3475 18.4441 33.3352 18.4321 33.3106C18.4201 33.2859 18.4081 33.2736 18.3961 33.249C18.3601 33.1997 18.3361 33.1381 18.3001 33.0889C18.2761 33.0519 18.2521 33.0026 18.2281 32.9657C18.2041 32.9164 18.1801 32.8671 18.144 32.8302C18.144 32.8302 18.144 32.8179 18.132 32.8179C18.096 32.7563 18.06 32.6824 18.024 32.6085C17.988 32.5346 17.952 32.473 17.916 32.3991C17.916 32.3868 17.904 32.3868 17.904 32.3744C17.88 32.3129 17.844 32.2636 17.82 32.202C17.808 32.1774 17.796 32.1527 17.784 32.1281C17.76 32.0788 17.736 32.0296 17.712 31.968C17.7 31.9433 17.688 31.9187 17.688 31.9064C17.664 31.8571 17.64 31.8078 17.628 31.7586C17.604 31.697 17.568 31.6231 17.544 31.5615C17.52 31.5122 17.508 31.4629 17.484 31.4137C17.46 31.3521 17.436 31.2905 17.412 31.2166C17.4 31.1673 17.3759 31.1181 17.3639 31.0811C17.3519 31.0565 17.3399 31.0195 17.3399 30.9949C17.3279 30.9456 17.3039 30.8964 17.2919 30.8471C17.2679 30.7855 17.2559 30.7239 17.2319 30.6623C17.2079 30.6007 17.1959 30.5268 17.1719 30.4652C17.1599 30.4037 17.1359 30.3421 17.1239 30.2805C17.1119 30.2312 17.0999 30.1819 17.0879 30.145C17.0759 30.0834 17.0639 30.0341 17.0519 29.9725C17.0399 29.8986 17.0279 29.8371 17.0159 29.7631C17.0039 29.6892 16.9919 29.6277 16.9799 29.5537C16.9799 29.5168 16.9679 29.4922 16.9679 29.4552C16.9559 29.4059 16.9559 29.3567 16.9439 29.3074C16.9319 29.1965 16.9079 29.0857 16.9079 28.9748C16.8959 28.9132 16.8959 28.864 16.8839 28.8024C16.8719 28.6423 16.8599 28.4698 16.8479 28.3097C16.8359 28.1496 16.8359 27.9771 16.8359 27.817V9.16841C17.0639 9.14378 17.2919 9.11914 17.532 9.11914C20.3523 9.11914 22.6806 11.287 23.0047 14.0954C23.0287 14.3171 23.0407 14.5511 23.0407 14.7852V18.4311C23.1847 18.3695 23.3167 18.3203 23.4608 18.271C23.6048 18.2217 23.7488 18.1725 23.8928 18.1232C24.5529 17.9261 25.237 17.8029 25.9331 17.7537C26.0051 17.7537 26.0891 17.7413 26.1611 17.7413C26.2451 17.7413 26.3171 17.729 26.4011 17.729C26.4852 17.729 26.5572 17.729 26.6412 17.729C26.7372 17.729 26.8332 17.729 26.9292 17.729C27.0252 17.729 27.1092 17.7413 27.2052 17.7413H27.2172C27.3973 17.7537 27.5893 17.766 27.7693 17.7906C28.0454 17.8276 28.3214 17.8645 28.5974 17.9261C29.7616 18.3079 30.6017 19.4165 30.6017 20.7345C30.6017 21.9785 29.8456 23.0501 28.7655 23.4813C28.7414 23.4936 28.7294 23.4936 28.7054 23.5059C28.1054 23.7276 27.4573 23.8631 26.7852 23.8631C24.7089 23.8631 23.0167 25.5875 23.0167 27.7308C23.0167 29.874 24.6969 31.5984 26.7852 31.5984C27.6373 31.5984 28.4414 31.7955 29.1615 32.1527C29.2215 32.1774 29.2695 32.202 29.3295 32.2389C29.3415 32.2513 29.3655 32.2513 29.3775 32.2636C30.2656 32.7316 30.8657 33.6924 30.8657 34.801Z" fill="#F47E33"/>
<path d="M30.8657 34.77C30.8657 36.2009 29.8816 37.3954 28.5854 37.6816C28.1774 37.7687 27.7573 37.8309 27.3373 37.8558C27.2653 37.8558 27.2052 37.8682 27.1332 37.8682C27.0612 37.8682 26.9892 37.8806 26.9172 37.8806C26.8332 37.8806 26.7492 37.8806 26.6652 37.8806C26.4972 37.8806 26.3291 37.8806 26.1611 37.8682C26.0771 37.8682 25.9931 37.8558 25.9091 37.8558H25.8971C25.8251 37.8558 25.7411 37.8433 25.669 37.8309C25.645 37.8309 25.633 37.8309 25.609 37.8309C25.549 37.8184 25.489 37.8184 25.417 37.806C25.357 37.7935 25.297 37.7935 25.249 37.7811C25.189 37.7687 25.141 37.7687 25.081 37.7562C25.033 37.7438 24.985 37.7438 24.9249 37.7313C24.9129 37.7313 24.9129 37.7313 24.9009 37.7313C24.8409 37.7189 24.7809 37.7064 24.7209 37.694C24.6729 37.6816 24.6249 37.6691 24.5769 37.6567C24.5649 37.6567 24.5649 37.6567 24.5529 37.6567C24.4929 37.6442 24.4329 37.6318 24.3729 37.6194L24.2769 37.5945C24.2289 37.582 24.1928 37.5696 24.1448 37.5571C24.0728 37.5323 24.0008 37.5198 23.9408 37.4949C23.8928 37.4825 23.8328 37.4576 23.7848 37.4452C22.8487 37.1465 21.9606 36.7111 21.1684 36.1511C21.1084 36.1014 21.0364 36.0641 20.9764 36.0143C20.9164 35.9645 20.8564 35.9272 20.7964 35.8774C20.7844 35.8774 20.7844 35.865 20.7724 35.865C20.7124 35.8152 20.6644 35.7779 20.6044 35.7281C20.5924 35.7157 20.5804 35.7157 20.5804 35.7032C20.5324 35.6659 20.4964 35.6286 20.4484 35.5912C20.4244 35.5788 20.4003 35.5539 20.3763 35.529C20.3283 35.4917 20.2803 35.4419 20.2323 35.4046C20.2323 35.4046 20.2203 35.4046 20.2203 35.3922C20.1603 35.3424 20.1003 35.2926 20.0523 35.2304C19.9923 35.1806 19.9323 35.1184 19.8843 35.0687C19.8243 35.0065 19.7763 34.9567 19.7163 34.8945C19.6562 34.8323 19.6082 34.7825 19.5482 34.7203C19.4402 34.5959 19.3322 34.4839 19.2362 34.3594C19.1882 34.3097 19.1402 34.2475 19.1042 34.1977C19.0922 34.1853 19.0922 34.1853 19.0802 34.1728C19.0322 34.1106 18.9842 34.0484 18.9362 33.9862C18.9001 33.9364 18.8641 33.8866 18.8281 33.8369C18.7921 33.7871 18.7441 33.7249 18.7081 33.6751C18.6721 33.6253 18.6361 33.5756 18.6001 33.5134C18.5881 33.5009 18.5761 33.476 18.5641 33.4636C18.5281 33.4138 18.5041 33.3765 18.4681 33.3267C18.4441 33.2894 18.4201 33.2521 18.3961 33.2023C18.3601 33.1525 18.3361 33.0903 18.3001 33.0406C18.2761 33.0032 18.2521 32.9535 18.2281 32.9161C18.2041 32.8664 18.1801 32.8166 18.144 32.7793C18.144 32.7793 18.144 32.7668 18.132 32.7668C18.096 32.7046 18.06 32.63 18.024 32.5553C17.988 32.4806 17.952 32.4184 17.916 32.3438C17.916 32.3313 17.904 32.3313 17.904 32.3189C17.88 32.2567 17.844 32.2069 17.82 32.1447C17.808 32.1198 17.796 32.0949 17.784 32.0701C17.76 32.0203 17.736 31.9705 17.712 31.9083C17.7 31.8834 17.688 31.8585 17.688 31.8461C17.664 31.7963 17.64 31.7465 17.628 31.6968C17.604 31.6346 17.568 31.5599 17.544 31.4977C17.52 31.4479 17.508 31.3982 17.484 31.3484C17.46 31.2862 17.436 31.224 17.412 31.1493C17.4 31.0995 17.3759 31.0498 17.3639 31.0124C17.3519 30.9876 17.3399 30.9502 17.3399 30.9254C17.3279 30.8756 17.3039 30.8258 17.2919 30.776C17.2679 30.7138 17.2559 30.6516 17.2319 30.5894C17.2079 30.5272 17.1959 30.4525 17.1719 30.3903C17.1599 30.3281 17.1359 30.2659 17.1239 30.2037C17.1119 30.1539 17.0999 30.1042 17.0879 30.0668C17.0759 30.0046 17.0639 29.9548 17.0519 29.8926C17.0399 29.818 17.0279 29.7558 17.0159 29.6811C17.0039 29.6065 16.9919 29.5442 16.9799 29.4696C16.9799 29.4323 16.9679 29.4074 16.9679 29.3701C16.9559 29.3203 16.9559 29.2705 16.9439 29.2207C16.9319 29.1088 16.9079 28.9968 16.9079 28.8848C16.8959 28.8226 16.8959 28.7728 16.8839 28.7106C16.8719 28.5489 16.8599 28.3747 16.8479 28.2129C16.8359 28.0512 16.8359 27.877 16.8359 27.7152C16.8359 23.4226 19.4042 19.7397 23.0407 18.2466C23.1847 18.1844 23.3167 18.1346 23.4608 18.0848C23.6048 18.035 23.7488 17.9853 23.8928 17.9355C24.5529 17.7364 25.237 17.612 25.9331 17.5622C26.0051 17.5622 26.0891 17.5498 26.1611 17.5498C26.2451 17.5498 26.3171 17.5374 26.4011 17.5374C26.4852 17.5374 26.5572 17.5374 26.6412 17.5374C26.7372 17.5374 26.8332 17.5374 26.9292 17.5374C27.0252 17.5374 27.1092 17.5498 27.2052 17.5498H27.2172C27.3973 17.5622 27.5893 17.5747 27.7693 17.5996C28.0454 17.6369 28.3214 17.6742 28.5974 17.7364C29.7616 18.1221 30.6017 19.242 30.6017 20.5733C30.6017 21.83 29.8456 22.9125 28.7655 23.3479C28.7414 23.3604 28.7294 23.3604 28.7054 23.3728C28.1054 23.5968 27.4573 23.7337 26.7852 23.7337C24.7089 23.7337 23.0167 25.4756 23.0167 27.6406C23.0167 29.8055 24.6969 31.5475 26.7852 31.5475C27.6373 31.5475 28.4414 31.7465 29.1615 32.1074C29.2215 32.1323 29.2695 32.1571 29.3295 32.1945C29.3415 32.2069 29.3655 32.2069 29.3775 32.2194C30.2656 32.6797 30.8657 33.6502 30.8657 34.77Z" fill="white"/>
</svg>
