<svg width="148" height="26" viewBox="0 0 148 26" fill="none" xmlns="http://www.w3.org/2000/svg">
<path d="M0.854004 12.8689V8.61165H3.80602V4.56472L8.56346 1.97192V8.61528H11.8285V12.8725H8.56346V18.3736C8.56346 19.7335 8.74909 20.5929 9.12037 20.9519C9.49165 21.3109 10.3944 21.4886 11.8285 21.4886V25.9163H11.1333C8.37782 25.9163 6.46683 25.3687 5.40396 24.2736C4.33745 23.1784 3.80602 21.2239 3.80602 18.4099V12.8689H0.854004Z" fill="white" />
<path d="M31.7062 23.2913C29.8651 25.0401 27.6251 25.9163 24.9899 25.9163C22.3548 25.9163 20.1186 25.0401 18.2737 23.2913C16.4325 21.5426 15.512 19.4209 15.512 16.9371C15.512 14.4534 16.4325 12.3317 18.2737 10.583C20.1148 8.8342 22.3548 7.95801 24.9899 7.95801C27.6251 7.95801 29.8613 8.8342 31.7062 10.583C33.5474 12.3317 34.4679 14.4534 34.4679 16.9371C34.4679 19.4209 33.5512 21.539 31.7062 23.2913ZM24.9938 21.4267C26.2634 21.4267 27.3489 20.985 28.2503 20.0979C29.1517 19.2109 29.6043 18.1573 29.6043 16.9371C29.6043 15.717 29.1517 14.6634 28.2503 13.7763C27.3489 12.8893 26.2634 12.4476 24.9938 12.4476C23.7012 12.4476 22.6157 12.8857 21.7373 13.7619C20.8589 14.6381 20.4178 15.6953 20.4178 16.9408C20.4178 18.1863 20.8589 19.2435 21.7373 20.1197C22.6157 20.9886 23.7012 21.4267 24.9938 21.4267Z" fill="white" />
<path d="M49.5752 25.9162L44.8661 19.0825L42.5479 21.783V25.9162H37.8062V0.974121H42.5479V16.3856L48.9149 8.83567H54.4185L48.1204 16.2137L54.7668 25.9162H49.5752Z" fill="white" />
<path d="M65.6083 25.9163C62.952 25.9163 60.7608 25.0511 59.0383 23.3244C57.3159 21.5978 56.4547 19.4693 56.4547 16.9353C56.4547 14.4485 57.3341 12.3308 59.0892 10.5824C60.8444 8.83402 62.9738 7.95801 65.4666 7.95801C68.0793 7.95801 70.2196 8.81592 71.8984 10.5318C73.5772 12.2476 74.413 14.3725 74.413 16.9028V18.6294H61.0297C61.3058 19.596 61.84 20.3634 62.6249 20.9245C63.4098 21.4892 64.4164 21.7715 65.641 21.7715C66.5894 21.7715 67.4397 21.529 68.1883 21.0439C68.9405 20.5588 69.511 19.9036 69.9034 19.0747L73.6826 21.319C72.8977 22.7235 71.8148 23.8385 70.4412 24.6674C69.0677 25.5 67.4542 25.9163 65.6083 25.9163ZM65.5029 12.1028C64.5327 12.1028 63.6715 12.3489 62.9193 12.8449C62.1671 13.3408 61.6075 13.9996 61.2368 14.8322H69.6273C69.0059 13.0114 67.6287 12.1028 65.5029 12.1028Z" fill="white" />
<path d="M77.7512 25.9163V8.3123H82.4411V10.2831C83.6371 8.73303 85.2196 7.95801 87.1996 7.95801C89.2447 7.95801 90.8417 8.59278 91.9907 9.85865C93.1396 11.1245 93.7141 12.8997 93.7141 15.1767V25.9163H88.9231V15.8115C88.9231 14.6121 88.6521 13.6931 88.1137 13.0473C87.5754 12.4014 86.7877 12.0804 85.7544 12.0804C84.7896 12.0804 84.002 12.431 83.3914 13.1359C82.7807 13.8408 82.4772 14.8963 82.4772 16.3061V25.9163H77.7512Z" fill="white" />
<path d="M111.197 23.2913C109.55 25.0401 107.545 25.9163 105.188 25.9163C102.83 25.9163 100.829 25.0401 99.1783 23.2913C97.5309 21.5426 96.7073 19.4209 96.7073 16.9371C96.7073 14.4534 97.5309 12.3317 99.1783 10.583C100.826 8.8342 102.83 7.95801 105.188 7.95801C107.545 7.95801 109.546 8.8342 111.197 10.583C112.844 12.3317 113.668 14.4534 113.668 16.9371C113.668 19.4209 112.848 21.539 111.197 23.2913ZM105.191 21.4267C106.327 21.4267 107.298 20.985 108.105 20.0979C108.911 19.2109 109.316 18.1573 109.316 16.9371C109.316 15.717 108.911 14.6634 108.105 13.7763C107.298 12.8893 106.327 12.4476 105.191 12.4476C104.034 12.4476 103.063 12.8857 102.277 13.7619C101.491 14.6381 101.097 15.6953 101.097 16.9408C101.097 18.1863 101.491 19.2435 102.277 20.1197C103.063 20.9886 104.034 21.4267 105.191 21.4267Z" fill="white" />
<path d="M117.006 25.9129V8.95581H121.542V11.7358C122.409 9.88009 123.944 8.95581 126.145 8.95581H127.98V13.467H125.079C123.856 13.467 122.968 13.819 122.413 14.5193C121.857 15.2196 121.577 16.3501 121.577 17.9107V25.9164H117.006V25.9129Z" fill="white" />
<path d="M138.207 25.9163C136.172 25.9163 134.298 25.1197 132.59 23.5339C130.882 21.9445 130.029 19.7467 130.029 16.9371C130.029 15.0037 130.459 13.3346 131.32 11.9298C132.181 10.525 133.216 9.51125 134.426 8.89213C135.635 8.26938 136.919 7.95801 138.278 7.95801C140.381 7.95801 142.067 8.63868 143.337 9.99642V8.30197H147.987V25.5723H143.337V23.6353C142.064 25.156 140.356 25.9163 138.207 25.9163ZM139.122 21.5643C140.367 21.5643 141.402 21.1081 142.227 20.1993C143.053 19.2906 143.465 18.1899 143.465 16.9009C143.465 15.612 143.053 14.5186 142.227 13.6207C141.402 12.7227 140.367 12.2738 139.122 12.2738C137.83 12.2738 136.752 12.7119 135.881 13.5881C135.009 14.4643 134.575 15.5686 134.575 16.9046C134.575 18.2406 135.009 19.3521 135.881 20.2392C136.752 21.119 137.834 21.5643 139.122 21.5643Z" fill="white" />
</svg>