<svg width="29" height="29" viewBox="0 0 29 29" fill="none" xmlns="http://www.w3.org/2000/svg">
<path d="M6.56485 2C4.03612 2 2 4.03612 2 6.56484V22.4351C2 24.9639 4.03612 27 6.56485 27H15.1664V17.2265H12.5821V13.7078H15.1664V10.7016C15.1664 8.33969 16.6934 6.17109 20.211 6.17109C21.6352 6.17109 22.6883 6.30782 22.6883 6.30782L22.6055 9.59376C22.6055 9.59376 21.5314 9.58361 20.3594 9.58361C19.0909 9.58361 18.8875 10.1681 18.8875 11.1383V13.7078H22.7063L22.5399 17.2266H18.8875V27H22.4352C24.9639 27 27 24.9639 27 22.4352V6.56487C27 4.03615 24.9639 2.00002 22.4352 2.00002H6.56483L6.56485 2Z" fill="#6F6C99"/>
</svg>
