<svg width="29" height="29" viewBox="0 0 29 29" fill="none" xmlns="http://www.w3.org/2000/svg">
<path d="M14.4966 10.3316C12.2014 10.3316 10.3283 12.2047 10.3283 14.5C10.3283 16.7953 12.2014 18.6684 14.4966 18.6684C16.7919 18.6684 18.665 16.7953 18.665 14.5C18.665 12.2047 16.7919 10.3316 14.4966 10.3316ZM26.9986 14.5C26.9986 12.7738 27.0142 11.0633 26.9173 9.34026C26.8204 7.33891 26.3638 5.56271 24.9004 4.09922C23.4338 2.63261 21.6607 2.17918 19.6594 2.08224C17.9333 1.98529 16.2228 2.00093 14.4998 2.00093C12.7736 2.00093 11.0631 1.98529 9.34013 2.08224C7.33881 2.17918 5.56265 2.63573 4.09918 4.09922C2.6326 5.56584 2.17917 7.33891 2.08223 9.34026C1.98529 11.0664 2.00093 12.777 2.00093 14.5C2.00093 16.223 1.98529 17.9367 2.08223 19.6597C2.17917 21.6611 2.63572 23.4373 4.09918 24.9008C5.56577 26.3674 7.33881 26.8208 9.34013 26.9178C11.0663 27.0147 12.7768 26.9991 14.4998 26.9991C16.2259 26.9991 17.9364 27.0147 19.6594 26.9178C21.6607 26.8208 23.4369 26.3643 24.9004 24.9008C26.3669 23.4342 26.8204 21.6611 26.9173 19.6597C27.0174 17.9367 26.9986 16.2262 26.9986 14.5ZM14.4966 20.9137C10.9474 20.9137 8.08305 18.0493 8.08305 14.5C8.08305 10.9507 10.9474 8.08629 14.4966 8.08629C18.0458 8.08629 20.9102 10.9507 20.9102 14.5C20.9102 18.0493 18.0458 20.9137 14.4966 20.9137ZM21.1729 9.3215C20.3442 9.3215 19.675 8.6523 19.675 7.82361C19.675 6.99493 20.3442 6.32573 21.1729 6.32573C22.0016 6.32573 22.6708 6.99493 22.6708 7.82361C22.671 8.02039 22.6324 8.21528 22.5572 8.39712C22.4821 8.57897 22.3717 8.74419 22.2326 8.88333C22.0935 9.02247 21.9282 9.1328 21.7464 9.20798C21.5646 9.28317 21.3697 9.32175 21.1729 9.3215Z" fill="#6F6C99"/>
</svg>
