<svg width="29" height="29" viewBox="0 0 29 29" fill="none" xmlns="http://www.w3.org/2000/svg">
<rect x="2" y="2" width="25" height="25" rx="4.11304" fill="#6F6C99"/>
<path d="M8.14106 10.5535C8.15094 10.4518 8.13709 10.3492 8.10062 10.2538C8.06415 10.1585 8.00606 10.073 7.931 10.0043L6.3768 8.1145V7.83325H11.2075L14.9428 16.0907L18.2265 7.83325H22.8334V8.1145L21.5036 9.40015C21.4474 9.44318 21.4039 9.50085 21.3777 9.56696C21.3516 9.63307 21.3438 9.70511 21.3553 9.77533V19.2245C21.3438 19.2947 21.3516 19.3668 21.3777 19.4329C21.4039 19.499 21.4474 19.5567 21.5036 19.5997L22.8025 20.8853V21.1666H16.266V20.8853L17.6134 19.5686C17.7447 19.4363 17.7447 19.3946 17.7447 19.1934V11.5573L13.9989 21.1421H13.4923L9.13676 11.5573V17.9805C9.09871 18.2512 9.18858 18.5225 9.37824 18.717L11.1287 20.857V21.1382H6.16675V20.8603L7.91722 18.717C8.10301 18.5225 8.18957 18.2479 8.14106 17.9805V10.5535Z" fill="#1E1B43"/>
</svg>
