<svg width="29" height="29" viewBox="0 0 29 29" fill="none" xmlns="http://www.w3.org/2000/svg">
<path d="M22.8333 9.84505C22.2257 10.1163 21.5692 10.3008 20.8639 10.3984C21.6018 9.96441 22.1063 9.32964 22.3776 8.49414C21.6723 8.90647 20.9453 9.18316 20.1966 9.32422C19.5347 8.60807 18.7046 8.25 17.7064 8.25C16.7624 8.25 15.9567 8.58366 15.2894 9.25098C14.6221 9.91829 14.2884 10.724 14.2884 11.668C14.2884 11.9826 14.3155 12.2431 14.3698 12.4492C12.9701 12.3733 11.6571 12.0206 10.431 11.3913C9.20486 10.7619 8.16319 9.92101 7.30599 8.86849C6.99132 9.41102 6.83398 9.98611 6.83398 10.5938C6.83398 11.8307 7.32769 12.7802 8.3151 13.4421C7.80512 13.4312 7.26259 13.2901 6.6875 13.0189V13.0514C6.6875 13.8652 6.95877 14.5895 7.5013 15.2243C8.04384 15.859 8.71115 16.2524 9.50325 16.4043C9.18858 16.4911 8.91189 16.5345 8.67318 16.5345C8.53212 16.5345 8.32053 16.5128 8.03841 16.4694C8.26628 17.153 8.67046 17.7172 9.25098 18.1621C9.83149 18.607 10.4907 18.8349 11.2285 18.8457C9.96983 19.8223 8.55382 20.3105 6.98047 20.3105C6.69835 20.3105 6.42708 20.2943 6.16667 20.2617C7.77257 21.2817 9.51953 21.7917 11.4076 21.7917C12.6228 21.7917 13.7622 21.5991 14.8255 21.2139C15.8889 20.8287 16.8003 20.3133 17.5599 19.6676C18.3194 19.022 18.9732 18.2788 19.5212 17.4378C20.0691 16.5969 20.476 15.718 20.7419 14.8011C21.0077 13.8842 21.1406 12.9701 21.1406 12.0586C21.1406 11.8633 21.1352 11.7168 21.1243 11.6191C21.8079 11.1309 22.3776 10.5395 22.8333 9.84505ZM27 6.6875V22.3125C27 23.6037 26.5416 24.7078 25.6247 25.6247C24.7078 26.5416 23.6037 27 22.3125 27H6.6875C5.39627 27 4.29221 26.5416 3.37533 25.6247C2.45844 24.7078 2 23.6037 2 22.3125V6.6875C2 5.39627 2.45844 4.29221 3.37533 3.37533C4.29221 2.45844 5.39627 2 6.6875 2H22.3125C23.6037 2 24.7078 2.45844 25.6247 3.37533C26.5416 4.29221 27 5.39627 27 6.6875Z" fill="#6F6C99"/>
</svg>
